<svg width="231" height="223" viewBox="0 0 231 223" fill="none" xmlns="http://www.w3.org/2000/svg">
<rect width="231" height="223" rx="52" fill="#111A1F"/>
<path d="M80 36C82.7614 36 85 38.2386 85 41V87C85 88.1046 85.8954 89 87 89H143C144.105 89 145 88.1046 145 87V41C145 38.2386 147.239 36 150 36H180C182.761 36 185 38.2386 185 41V180C185 182.761 182.761 185 180 185H150C147.239 185 145 182.761 145 180V129C145 127.895 144.105 127 143 127H87C85.8954 127 85 127.895 85 129V180C85 182.761 82.7614 185 80 185H50C47.2386 185 45 182.761 45 180V41C45 38.2386 47.2386 36 50 36H80Z" fill="#3B82F6"/>
<path d="M125 108.5L185 50.0433V166.957L125 108.5Z" fill="white"/>
</svg>
