<svg width="52" height="53" viewBox="0 0 52 53" fill="none" xmlns="http://www.w3.org/2000/svg">
<path d="M41.1172 45.3254C42.2464 43.6353 43.3391 41.9791 44.4683 40.2891C45.3789 41.9791 46.2531 43.6353 47.1637 45.3254C45.1603 45.3254 43.157 45.3254 41.1172 45.3254Z" fill="#9E04D5"/>
<path d="M10.9111 44.903C8.76226 43.8849 7.86112 41.3734 8.9009 39.2692L23.2497 9.94629C24.2895 7.8421 26.8543 6.95969 29.0031 7.97785C31.152 8.99601 32.0531 11.5075 31.0134 13.6117L16.6645 42.9685C15.6247 45.0388 13.06 45.9212 10.9111 44.903Z" fill="url(#paint0_linear_1045_5883)"/>
<path d="M22.8275 44.9298C20.8407 43.9681 19.9844 41.5638 20.9778 39.5717L29.884 21.1617C30.8431 19.1696 33.2409 18.3109 35.2277 19.307C37.2145 20.2687 38.0709 22.673 37.0775 24.6651L28.1712 43.0751C27.2121 45.0672 24.8143 45.8915 22.8275 44.9298Z" fill="url(#paint1_linear_1045_5883)"/>
<path d="M33.6894 44.9539C31.7535 44.0463 30.8892 41.794 31.8226 39.8778L34.8648 33.6588C35.7982 31.7762 38.1144 30.9358 40.0849 31.8435C42.0209 32.7511 42.8851 35.0034 41.9517 36.9196L38.9095 43.1386C37.9761 45.0548 35.6254 45.8616 33.6894 44.9539Z" fill="url(#paint2_linear_1045_5883)"/>
<defs>
<linearGradient id="paint0_linear_1045_5883" x1="10.2628" y1="45.526" x2="28.4299" y2="8.19235" gradientUnits="userSpaceOnUse">
<stop stop-color="#13AAEF"/>
<stop offset="1" stop-color="#2DDA8F"/>
</linearGradient>
<linearGradient id="paint1_linear_1045_5883" x1="23.0721" y1="43.9951" x2="35.0544" y2="20.2087" gradientUnits="userSpaceOnUse">
<stop stop-color="#F89634"/>
<stop offset="0.1849" stop-color="#F79239"/>
<stop offset="0.4154" stop-color="#F28849"/>
<stop offset="0.67" stop-color="#EC7862"/>
<stop offset="0.9405" stop-color="#E26185"/>
<stop offset="1" stop-color="#E05B8E"/>
</linearGradient>
<linearGradient id="paint2_linear_1045_5883" x1="33.8165" y1="44.4876" x2="39.6956" y2="32.1905" gradientUnits="userSpaceOnUse">
<stop stop-color="#F22079"/>
<stop offset="0.2727" stop-color="#ED1E7E"/>
<stop offset="0.6124" stop-color="#DF198E"/>
<stop offset="0.9866" stop-color="#C911A7"/>
<stop offset="1" stop-color="#C811A8"/>
</linearGradient>
</defs>
</svg>
